<svg width="18" height="19" viewBox="0 0 18 19" fill="none" xmlns="http://www.w3.org/2000/svg">
<path d="M9.98231 0.764014C9.63098 0.490761 9.45532 0.354135 9.26135 0.301616C9.0902 0.255276 8.9098 0.255276 8.73865 0.301616C8.54468 0.354135 8.36902 0.490761 8.0177 0.764014L1.23539 6.03914C0.782021 6.39176 0.555337 6.56807 0.392027 6.78887C0.247366 6.98446 0.139601 7.2048 0.0740273 7.43907C0 7.70353 0 7.99071 0 8.56507V15.8C0 16.9201 0 17.4802 0.217987 17.908C0.409734 18.2843 0.715695 18.5903 1.09202 18.782C1.51984 19 2.0799 19 3.2 19H5.2C5.48003 19 5.62004 19 5.727 18.9455C5.82108 18.8976 5.89757 18.8211 5.9455 18.727C6 18.62 6 18.48 6 18.2V11.6C6 11.0399 6 10.7599 6.10899 10.546C6.20487 10.3578 6.35785 10.2049 6.54601 10.109C6.75992 10 7.03995 10 7.6 10H10.4C10.9601 10 11.2401 10 11.454 10.109C11.6422 10.2049 11.7951 10.3578 11.891 10.546C12 10.7599 12 11.0399 12 11.6V18.2C12 18.48 12 18.62 12.0545 18.727C12.1024 18.8211 12.1789 18.8976 12.273 18.9455C12.38 19 12.52 19 12.8 19H14.8C15.9201 19 16.4802 19 16.908 18.782C17.2843 18.5903 17.5903 18.2843 17.782 17.908C18 17.4802 18 16.9201 18 15.8V8.56507C18 7.99071 18 7.70353 17.926 7.43907C17.8604 7.2048 17.7526 6.98446 17.608 6.78887C17.4447 6.56807 17.218 6.39176 16.7646 6.03914L9.98231 0.764014Z" fill="white"/>
</svg>
