<svg width="20" height="20" viewBox="0 0 20 20" fill="none" xmlns="http://www.w3.org/2000/svg">
<g clip-path="url(#clip0_0_4071)">
<path fill-rule="evenodd" clip-rule="evenodd" d="M20 2.14286C20 1.57454 19.7742 1.02949 19.3724 0.627628C18.9705 0.225765 18.4255 0 17.8571 0L7.85714 0C7.28882 0 6.74378 0.225765 6.34191 0.627628C5.94005 1.02949 5.71429 1.57454 5.71428 2.14286V4.91286C6.29393 5.37714 6.67002 6.04888 6.76286 6.78571H11.7857C12.2078 6.78571 12.6258 6.86885 13.0158 7.03039C13.4057 7.19192 13.7601 7.42868 14.0586 7.72716C14.357 8.02563 14.5938 8.37997 14.7553 8.76995C14.9169 9.15992 15 9.57789 15 10C15 10.4221 14.9169 10.8401 14.7553 11.2301C14.5938 11.62 14.357 11.9744 14.0586 12.2728C13.7601 12.5713 13.4057 12.8081 13.0158 12.9696C12.6258 13.1311 12.2078 13.2143 11.7857 13.2143H6.76286C6.67002 13.9511 6.29393 14.6229 5.71428 15.0871V17.8571C5.71429 18.4255 5.94005 18.9705 6.34191 19.3724C6.74378 19.7742 7.28882 20 7.85714 20H17.8571C18.4255 20 18.9705 19.7742 19.3724 19.3724C19.7742 18.9705 20 18.4255 20 17.8571V2.14286ZM4.33857 6.15286C4.53437 6.23396 4.70172 6.3713 4.81946 6.54752C4.93719 6.72375 5.00002 6.93092 5 7.14286V8.57143H11.7857C12.1646 8.57143 12.528 8.72194 12.7959 8.98985C13.0638 9.25776 13.2143 9.62112 13.2143 10C13.2143 10.3789 13.0638 10.7422 12.7959 11.0102C12.528 11.2781 12.1646 11.4286 11.7857 11.4286H5V12.8571C4.99981 13.0689 4.93687 13.2759 4.81913 13.4519C4.70139 13.6279 4.53412 13.7651 4.33846 13.8461C4.1428 13.9271 3.92752 13.9484 3.7198 13.9071C3.51209 13.8658 3.32127 13.7639 3.17143 13.6143L0.314285 10.7571C0.113642 10.5562 0.00094223 10.2839 0.00094223 10C0.00094223 9.71607 0.113642 9.44375 0.314285 9.24286L3.17143 6.38571C3.32116 6.23587 3.51196 6.13377 3.71969 6.09233C3.92743 6.05088 4.1428 6.07194 4.33857 6.15286Z" fill="#CACACA"/>
</g>
<defs>
<clipPath id="clip0_0_4071">
<rect width="20" height="20" fill="white" transform="matrix(-1 0 0 1 20 0)"/>
</clipPath>
</defs>
</svg>
