<svg width="16" height="18" viewBox="0 0 16 18" fill="none" xmlns="http://www.w3.org/2000/svg">
<path d="M13.8333 14H5.5C5.05797 14 4.63405 13.8244 4.32149 13.5118C4.00893 13.1993 3.83333 12.7754 3.83333 12.3333V2.33334C3.83333 1.89131 4.00893 1.46739 4.32149 1.15483C4.63405 0.842266 5.05797 0.666672 5.5 0.666672H6.33333V4.83334L8 3.58334L9.66667 4.83334V0.666672H13.8333C14.2754 0.666672 14.6993 0.842266 15.0118 1.15483C15.3244 1.46739 15.5 1.89131 15.5 2.33334V12.3333C15.5 12.7754 15.3244 13.1993 15.0118 13.5118C14.6993 13.8244 14.2754 14 13.8333 14ZM12.1667 15.6667V17.3333H2.16667C1.72464 17.3333 1.30072 17.1577 0.988155 16.8452C0.675595 16.5326 0.5 16.1087 0.5 15.6667V4.00001H2.16667V15.6667H12.1667Z" fill="white"/>
</svg>
