<svg width="16" height="15" viewBox="0 0 16 15" fill="none" xmlns="http://www.w3.org/2000/svg">
<path d="M5.99998 7.50001L7.33331 8.83334L10.3333 5.83334M11.9341 2.83235C12.0714 3.16437 12.3349 3.42828 12.6667 3.56606L13.8301 4.048C14.1622 4.18553 14.426 4.44934 14.5635 4.78138C14.701 5.11343 14.701 5.48651 14.5635 5.81855L14.0819 6.98121C13.9443 7.3134 13.9441 7.68686 14.0824 8.01889L14.5631 9.18121C14.6313 9.34566 14.6664 9.52194 14.6664 9.69997C14.6664 9.87801 14.6314 10.0543 14.5633 10.2188C14.4951 10.3833 14.3953 10.5327 14.2694 10.6586C14.1435 10.7844 13.994 10.8843 13.8295 10.9523L12.6669 11.4339C12.3349 11.5712 12.071 11.8347 11.9332 12.1665L11.4513 13.33C11.3137 13.6621 11.0499 13.9259 10.7179 14.0634C10.3859 14.2009 10.0128 14.201 9.68079 14.0634L8.51817 13.5818C8.18613 13.4446 7.8132 13.4449 7.48136 13.5826L6.31791 14.0638C5.98606 14.2011 5.61332 14.2009 5.28156 14.0635C4.9498 13.9261 4.68615 13.6626 4.54852 13.3309L4.06646 12.1671C3.92918 11.8351 3.66568 11.5711 3.33388 11.4334L2.17042 10.9514C1.83854 10.8139 1.57482 10.5503 1.43723 10.2185C1.29965 9.8866 1.29947 9.5137 1.43672 9.18171L1.91829 8.01904C2.05548 7.68699 2.0552 7.31404 1.91751 6.9822L1.43663 5.81787C1.36845 5.65341 1.33334 5.47713 1.33331 5.2991C1.33328 5.12107 1.36833 4.94478 1.43646 4.7803C1.50459 4.61582 1.60446 4.46638 1.73036 4.34051C1.85626 4.21465 2.00573 4.11482 2.17022 4.04675L3.33284 3.56515C3.66456 3.42799 3.9283 3.16481 4.06618 2.83338L4.5481 1.66988C4.68563 1.33784 4.94943 1.07403 5.28146 0.936496C5.61349 0.798959 5.98656 0.798959 6.31859 0.936496L7.48121 1.41809C7.81325 1.55529 8.18618 1.555 8.51802 1.41731L9.68196 0.937243C10.0139 0.799783 10.3869 0.799812 10.7189 0.937321C11.0509 1.07483 11.3146 1.33856 11.4522 1.67052L11.9342 2.83436L11.9341 2.83235Z" stroke="#008CFF" stroke-width="1.5" stroke-linecap="round" stroke-linejoin="round"/>
</svg>
