<svg width="18" height="18" viewBox="0 0 18 18" fill="none" xmlns="http://www.w3.org/2000/svg">
<path d="M5.25 5.875C5.91304 5.875 6.54893 5.61161 7.01777 5.14277C7.48661 4.67393 7.75 4.03804 7.75 3.375C7.75 2.71196 7.48661 2.07607 7.01777 1.60723C6.54893 1.13839 5.91304 0.875 5.25 0.875C4.58696 0.875 3.95107 1.13839 3.48223 1.60723C3.01339 2.07607 2.75 2.71196 2.75 3.375C2.75 4.03804 3.01339 4.67393 3.48223 5.14277C3.95107 5.61161 4.58696 5.875 5.25 5.875ZM0.25 8.6875C0.25 8.2731 0.41462 7.87567 0.707646 7.58265C1.00067 7.28962 1.3981 7.125 1.8125 7.125H5.79688C5.64168 7.52346 5.5622 7.94738 5.5625 8.375C5.5625 9.5375 6.13937 10.5656 7.02312 11.1875H5.5625C5.10545 11.1874 4.65714 11.3127 4.26629 11.5496C3.87544 11.7865 3.55701 12.126 3.34562 12.5312C2.14813 12.2231 1.38187 11.6238 0.90875 10.9438C0.25 9.99688 0.25 9.01625 0.25 8.84375V8.6875ZM14.6544 12.5312C15.8519 12.2231 16.6181 11.6238 17.0912 10.9438C17.75 9.99688 17.75 9.01562 17.75 8.84375V8.6875C17.75 8.2731 17.5854 7.87567 17.2924 7.58265C16.9993 7.28962 16.6019 7.125 16.1875 7.125H12.2031C12.3544 7.5125 12.4375 7.93375 12.4375 8.375C12.4375 9.5375 11.8606 10.5656 10.9769 11.1875H12.4375C12.8945 11.1874 13.3429 11.3127 13.7337 11.5496C14.1246 11.7865 14.443 12.126 14.6544 12.5312ZM15.25 3.375C15.25 4.03804 14.9866 4.67393 14.5178 5.14277C14.0489 5.61161 13.413 5.875 12.75 5.875C12.087 5.875 11.4511 5.61161 10.9822 5.14277C10.5134 4.67393 10.25 4.03804 10.25 3.375C10.25 2.71196 10.5134 2.07607 10.9822 1.60723C11.4511 1.13839 12.087 0.875 12.75 0.875C13.413 0.875 14.0489 1.13839 14.5178 1.60723C14.9866 2.07607 15.25 2.71196 15.25 3.375ZM4 13.6875C4 13.2731 4.16462 12.8757 4.45765 12.5826C4.75067 12.2896 5.1481 12.125 5.5625 12.125H12.4375C12.6427 12.125 12.8459 12.1654 13.0354 12.2439C13.225 12.3225 13.3973 12.4376 13.5424 12.5826C13.6874 12.7277 13.8025 12.9 13.8811 13.0896C13.9596 13.2791 14 13.4823 14 13.6875V13.8438C14 14.0156 14 14.9969 13.3412 15.9438C12.6537 16.9319 11.3475 17.75 9 17.75C6.6525 17.75 5.34625 16.9319 4.65875 15.9438C4 14.9969 4 14.0162 4 13.8438V13.6875ZM9 10.875C9.66304 10.875 10.2989 10.6116 10.7678 10.1428C11.2366 9.67393 11.5 9.03804 11.5 8.375C11.5 7.71196 11.2366 7.07607 10.7678 6.60723C10.2989 6.13839 9.66304 5.875 9 5.875C8.33696 5.875 7.70107 6.13839 7.23223 6.60723C6.76339 7.07607 6.5 7.71196 6.5 8.375C6.5 9.03804 6.76339 9.67393 7.23223 10.1428C7.70107 10.6116 8.33696 10.875 9 10.875Z" fill="white"/>
</svg>
