<svg width="24" height="20" viewBox="0 0 24 20" fill="none" xmlns="http://www.w3.org/2000/svg">
<path d="M18.3 7.60001H12.6V9.70001C12.6 11.1888 11.3888 12.4 9.9 12.4C8.41125 12.4 7.2 11.1888 7.2 9.70001V5.14001L4.76625 6.60251C4.0425 7.03376 3.6 7.81751 3.6 8.65751V10.4313L0.600001 12.1638C0.0262508 12.4938 -0.172499 13.2288 0.161251 13.8025L3.16125 19C3.49125 19.5738 4.22625 19.7688 4.8 19.4388L8.6775 17.2H13.8C15.1238 17.2 16.2 16.1238 16.2 14.8H16.8C17.4638 14.8 18 14.2638 18 13.6V11.2H18.3C18.7988 11.2 19.2 10.7988 19.2 10.3V8.50001C19.2 8.00126 18.7988 7.60001 18.3 7.60001ZM23.8388 6.19751L20.8388 1.00001C20.5088 0.426257 19.7738 0.231257 19.2 0.561257L15.3225 2.80001H11.49C11.04 2.80001 10.6013 2.92751 10.2188 3.16376L8.9625 3.94751C8.61 4.16501 8.4 4.55126 8.4 4.96376V9.70001C8.4 10.5288 9.07125 11.2 9.9 11.2C10.7288 11.2 11.4 10.5288 11.4 9.70001V6.40001H18.3C19.4588 6.40001 20.4 7.34126 20.4 8.50001V9.56876L23.4 7.83626C23.9738 7.50251 24.1688 6.77126 23.8388 6.19751Z" fill="white"/>
</svg>
